<svg width="96" height="96" xmlns="http://www.w3.org/2000/svg" xmlns:xlink="http://www.w3.org/1999/xlink" xml:space="preserve" overflow="hidden"><g transform="translate(-376 -408)"><path d="M409 438.8C409 443.771 404.971 447.8 400 447.8 395.029 447.8 391 443.771 391 438.8 391 433.829 395.029 429.8 400 429.8 404.971 429.8 409 433.829 409 438.8Z"/><path d="M457 438.8C457 443.771 452.971 447.8 448 447.8 443.029 447.8 439 443.771 439 438.8 439 433.829 443.029 429.8 448 429.8 452.971 429.8 457 433.829 457 438.8Z"/><path d="M442 482.2 442 473.2C442 471.8 441.4 470.4 440.2 469.6 437.8 467.6 434.6 466.2 431.4 465.4 429.2 464.8 426.6 464.2 424 464.2 421.6 464.2 419 464.6 416.6 465.4 413.4 466.2 410.4 467.8 407.8 469.6 406.6 470.6 406 471.8 406 473.2L406 482.2 442 482.2Z"/><path d="M433 452.8C433 457.771 428.971 461.8 424 461.8 419.029 461.8 415 457.771 415 452.8 415 447.829 419.029 443.8 424 443.8 428.971 443.8 433 447.829 433 452.8Z"/><path d="M464.2 455.6C461.8 453.6 458.6 452.2 455.4 451.4 453.2 450.8 450.6 450.2 448 450.2 445.6 450.2 443 450.6 440.6 451.4 439.4 451.8 438.2 452.2 437 452.8L437 453C437 456.4 435.6 459.6 433.4 461.8 437.2 463 440.2 464.6 442.6 466.4 443.2 467 443.8 467.4 444.2 468.2L466 468.2 466 459.2C466 457.8 465.4 456.4 464.2 455.6Z"/><path d="M405.4 466.4 405.4 466.4C408.2 464.4 411.4 462.8 414.6 461.8 412.4 459.4 411 456.4 411 453 411 452.8 411 452.8 411 452.6 409.8 452.2 408.6 451.6 407.4 451.4 405.2 450.8 402.6 450.2 400 450.2 397.6 450.2 395 450.6 392.6 451.4 389.4 452.4 386.4 453.8 383.8 455.6 382.6 456.4 382 457.8 382 459.2L382 468.2 403.6 468.2C404.2 467.4 404.6 467 405.4 466.4Z"/></g></svg>