<svg width="96" height="96" xmlns="http://www.w3.org/2000/svg" xmlns:xlink="http://www.w3.org/1999/xlink" xml:space="preserve" overflow="hidden"><g transform="translate(-442 -168)"><path d="M531.84 210.26C531.84 203.26 527.92 193 519.5 193L501.5 193C501.053 192.102 500.281 191.408 499.34 191.06 498.378 190.671 497.302 190.671 496.34 191.06 495.573 190.363 494.576 189.972 493.54 189.96 492.374 189.95 491.257 190.429 490.46 191.28 489.389 190.81 488.171 190.81 487.1 191.28 486.303 191.638 485.641 192.24 485.21 193 485.21 193 458.73 193 458.65 193.06 452.9 193.71 448.5 200.91 448.5 210 448.5 219.53 453.33 227 459.5 227L483 227 483 242 493 234.25 503 242 503 227 526.5 227C527.605 227 528.5 226.105 528.5 225 528.5 223.895 527.605 223 526.5 223 523.603 223.13 521.146 220.896 521 218L527 218C529.34 218 531.84 216 531.84 210.26ZM493.34 197.18C498.189 197.18 502.12 201.111 502.12 205.96 502.12 210.809 498.189 214.74 493.34 214.74 488.506 214.74 484.582 210.833 484.56 206 484.538 201.151 488.451 197.202 493.3 197.18 493.313 197.18 493.327 197.18 493.34 197.18ZM481.06 197C481.04 197.253 481.04 197.507 481.06 197.76 478.924 198.601 477.869 201.01 478.7 203.15 477.98 203.926 477.574 204.941 477.56 206 477.572 207.138 478.049 208.222 478.88 209 478.41 210.067 478.41 211.283 478.88 212.35 479.155 212.997 479.589 213.564 480.14 214L468.92 214C469.62 212.425 469.988 210.723 470 209 470 204 468.78 199.84 466.73 197ZM459.5 223C456.12 223 452.5 217.78 452.5 210 452.5 202.22 456.12 197 459.5 197 463.27 197 466 202 466 209 466 209 465.93 214 463 214 461.58 214 460 211.65 460 208.5 459.995 207.828 460.065 207.157 460.21 206.5 460.45 205.42 459.77 204.35 458.69 204.11 457.61 203.87 456.54 204.55 456.3 205.63 456.095 206.573 455.995 207.535 456 208.5 456 213.83 459.08 218 463 218L483 218 483 223ZM493 229.19 487 233.84 487 220.49C487.232 220.635 487.476 220.759 487.73 220.86 488.695 221.235 489.765 221.235 490.73 220.86 491.501 221.576 492.508 221.982 493.56 222 494.725 222.005 495.84 221.527 496.64 220.68 497.385 220.993 498.203 221.09 499 220.96L499 233.84ZM503 223 503 218.35C503.304 218.263 503.599 218.146 503.88 218L517 218C517 219.794 517.563 221.543 518.61 223ZM506.4 214C507.349 213.561 508.089 212.768 508.46 211.79 508.832 210.825 508.832 209.755 508.46 208.79 509.167 208.029 509.559 207.029 509.56 205.99 509.565 204.825 509.087 203.71 508.24 202.91 508.705 201.838 508.705 200.622 508.24 199.55 507.828 198.585 507.057 197.818 506.09 197.41 506.072 197.271 506.042 197.134 506 197L519.5 197C523.5 197 526.08 201.35 527.17 205.42 528.44 210.2 527.6 213.65 527 214Z"/></g></svg>