<svg width="96" height="96" xmlns="http://www.w3.org/2000/svg" xmlns:xlink="http://www.w3.org/1999/xlink" xml:space="preserve" overflow="hidden"><g transform="translate(-248 -231)"><path d="M282.59 295.41 271.17 284 282.59 272.59 285.41 275.41 276.83 284 285.41 292.59 282.59 295.41Z"/><path d="M309.41 295.41 306.59 292.59 315.17 284 306.59 275.41 309.41 272.59 320.83 284 309.41 295.41Z"/><path d="M289.301 295.322 298.869 272.236 302.564 273.767 292.997 296.853Z"/><path d="M256 248 256 310 336 310 336 248ZM325 254C326.105 254 327 254.895 327 256 327 257.105 326.105 258 325 258 323.895 258 323 257.105 323 256 323 254.895 323.895 254 325 254ZM318 254C319.105 254 320 254.895 320 256 320 257.105 319.105 258 318 258 316.895 258 316 257.105 316 256 316 254.895 316.895 254 318 254ZM311 254C312.105 254 313 254.895 313 256 313 257.105 312.105 258 311 258 309.895 258 309 257.105 309 256 309 254.895 309.895 254 311 254ZM330 304 262 304 262 264 330 264Z"/></g></svg>